# Blender v2.90.1 OBJ File: ''
# www.blender.org
mtllib gren.mtl
o Cube_Cube.001
v -1.383404 -0.133321 0.126037
v -1.383404 0.133321 0.126037
v -1.383404 -0.133321 -0.126037
v -1.383404 0.133321 -0.126037
v 6.462666 -0.133321 0.126037
v 6.462666 0.133321 0.126037
v 6.462666 -0.133321 -0.126037
v 6.462666 0.133321 -0.126037
vt 0.375000 0.000000
vt 0.625000 0.000000
vt 0.625000 0.250000
vt 0.375000 0.250000
vt 0.625000 0.500000
vt 0.375000 0.500000
vt 0.625000 0.750000
vt 0.375000 0.750000
vt 0.625000 1.000000
vt 0.375000 1.000000
vt 0.125000 0.500000
vt 0.125000 0.750000
vt 0.875000 0.500000
vt 0.875000 0.750000
vn -1.0000 0.0000 0.0000
vn 0.0000 0.0000 -1.0000
vn 1.0000 0.0000 0.0000
vn 0.0000 0.0000 1.0000
vn 0.0000 -1.0000 0.0000
vn 0.0000 1.0000 0.0000
usemtl None
s off
f 1/1/1 2/2/1 4/3/1 3/4/1
f 3/4/2 4/3/2 8/5/2 7/6/2
f 7/6/3 8/5/3 6/7/3 5/8/3
f 5/8/4 6/7/4 2/9/4 1/10/4
f 3/11/5 7/6/5 5/8/5 1/12/5
f 8/5/6 4/13/6 2/14/6 6/7/6
o Cube.001_Cube.002
v 9.017396 1.691443 -1.535755
v 8.886444 1.923715 -1.535755
v 8.926368 1.640123 -1.765148
v 8.795416 1.872395 -1.765148
v 5.867270 -0.084549 0.111613
v 5.736319 0.147723 0.111613
v 5.776242 -0.135870 -0.117781
v 5.645290 0.096402 -0.117781
vt 0.375000 0.000000
vt 0.375000 0.250000
vt 0.625000 0.250000
vt 0.625000 0.000000
vt 0.375000 0.500000
vt 0.625000 0.500000
vt 0.375000 0.750000
vt 0.625000 0.750000
vt 0.375000 1.000000
vt 0.625000 1.000000
vt 0.125000 0.500000
vt 0.125000 0.750000
vt 0.875000 0.750000
vt 0.875000 0.500000
vn 0.7927 0.4469 -0.4146
vn -0.3611 -0.2036 -0.9100
vn -0.7927 -0.4469 0.4146
vn 0.3611 0.2036 0.9100
vn 0.4911 -0.8711 -0.0000
vn -0.4911 0.8711 -0.0000
usemtl None
s off
f 9/15/7 11/16/7 12/17/7 10/18/7
f 11/16/8 15/19/8 16/20/8 12/17/8
f 15/19/9 13/21/9 14/22/9 16/20/9
f 13/21/10 9/23/10 10/24/10 14/22/10
f 11/25/11 9/26/11 13/21/11 15/19/11
f 16/20/12 14/22/12 10/27/12 12/28/12
o Cube.002_Cube.003
v 9.017396 -1.478502 1.739839
v 8.886444 -1.708700 1.770808
v 8.926368 -1.397054 1.960341
v 8.795416 -1.627252 1.991311
v 5.867270 0.061986 -0.129618
v 5.736319 -0.168212 -0.098649
v 5.776242 0.143433 0.090884
v 5.645290 -0.086765 0.121854
vt 0.375000 0.000000
vt 0.375000 0.250000
vt 0.625000 0.250000
vt 0.625000 0.000000
vt 0.375000 0.500000
vt 0.625000 0.500000
vt 0.375000 0.750000
vt 0.625000 0.750000
vt 0.375000 1.000000
vt 0.625000 1.000000
vt 0.125000 0.500000
vt 0.125000 0.750000
vt 0.875000 0.750000
vt 0.875000 0.500000
vn 0.7927 -0.3877 0.4704
vn -0.3611 0.3231 0.8748
vn -0.7927 0.3877 -0.4704
vn 0.3611 -0.3231 -0.8748
vn 0.4911 0.8633 -0.1161
vn -0.4911 -0.8633 0.1161
usemtl None
s off
f 17/29/13 19/30/13 20/31/13 18/32/13
f 19/30/14 23/33/14 24/34/14 20/31/14
f 23/33/15 21/35/15 22/36/15 24/34/15
f 21/35/16 17/37/16 18/38/16 22/36/16
f 19/39/17 17/40/17 21/35/17 23/33/17
f 24/34/18 22/36/18 18/41/18 20/42/18
o Cube.003_Cube.004
v 6.376319 -2.288036 0.069375
v 6.243115 -2.468467 -0.074847
v 6.288566 -2.392628 0.281275
v 6.155362 -2.573058 0.137052
v 3.224071 0.128979 -0.043029
v 3.090867 -0.051451 -0.187251
v 3.136318 0.024387 0.168870
v 3.003114 -0.156043 0.024648
vt 0.375000 0.000000
vt 0.375000 0.250000
vt 0.625000 0.250000
vt 0.625000 0.000000
vt 0.375000 0.500000
vt 0.625000 0.500000
vt 0.375000 0.750000
vt 0.625000 0.750000
vt 0.375000 1.000000
vt 0.625000 1.000000
vt 0.125000 0.500000
vt 0.125000 0.750000
vt 0.875000 0.750000
vt 0.875000 0.500000
vn 0.7933 -0.6082 0.0283
vn -0.3481 -0.4149 0.8406
vn -0.7933 0.6082 -0.0283
vn 0.3481 0.4149 -0.8406
vn 0.4996 0.6767 0.5409
vn -0.4996 -0.6767 -0.5409
usemtl None
s off
f 25/43/19 27/44/19 28/45/19 26/46/19
f 27/44/20 31/47/20 32/48/20 28/45/20
f 31/47/21 29/49/21 30/50/21 32/48/21
f 29/49/22 25/51/22 26/52/22 30/50/22
f 27/53/23 25/54/23 29/49/23 31/47/23
f 32/48/24 30/50/24 26/55/24 28/56/24
o Cube.004_Cube.005
v 5.814484 2.158051 2.428193
v 6.019038 2.125524 2.260270
v 5.877252 1.944258 2.546066
v 6.081806 1.911731 2.378143
v 3.465277 0.109376 -0.036643
v 3.669831 0.076848 -0.204566
v 3.528045 -0.104417 0.081230
v 3.732599 -0.136945 -0.086693
vt 0.375000 0.000000
vt 0.375000 0.250000
vt 0.625000 0.250000
vt 0.625000 0.000000
vt 0.375000 0.500000
vt 0.625000 0.500000
vt 0.375000 0.750000
vt 0.625000 0.750000
vt 0.375000 1.000000
vt 0.625000 1.000000
vt 0.125000 0.500000
vt 0.125000 0.750000
vt 0.875000 0.750000
vt 0.875000 0.500000
vn 0.5912 0.5155 0.6203
vn 0.2490 -0.8481 0.4676
vn -0.5912 -0.5155 -0.6203
vn -0.2490 0.8481 -0.4676
vn -0.7671 0.1220 0.6298
vn 0.7671 -0.1220 -0.6298
usemtl None
s off
f 33/57/25 35/58/25 36/59/25 34/60/25
f 35/58/26 39/61/26 40/62/26 36/59/26
f 39/61/27 37/63/27 38/64/27 40/62/27
f 37/63/28 33/65/28 34/66/28 38/64/28
f 35/67/29 33/68/29 37/63/29 39/61/29
f 40/62/30 38/64/30 34/69/30 36/70/30
o Cube.005_Cube.006
v 5.616436 2.158051 -2.845305
v 5.390358 2.125524 -2.982890
v 5.706950 1.944258 -2.943494
v 5.480873 1.911731 -3.081078
v 4.066210 0.109376 0.186360
v 3.840133 0.076848 0.048776
v 4.156725 -0.104417 0.088172
v 3.930647 -0.136945 -0.049412
vt 0.375000 0.000000
vt 0.375000 0.250000
vt 0.625000 0.250000
vt 0.625000 0.000000
vt 0.375000 0.500000
vt 0.625000 0.500000
vt 0.375000 0.750000
vt 0.625000 0.750000
vt 0.375000 1.000000
vt 0.625000 1.000000
vt 0.125000 0.500000
vt 0.125000 0.750000
vt 0.875000 0.750000
vt 0.875000 0.500000
vn 0.3901 0.5155 -0.7629
vn 0.3591 -0.8481 -0.3895
vn -0.3901 -0.5155 0.7629
vn -0.3591 0.8481 0.3895
vn 0.8479 0.1220 0.5160
vn -0.8479 -0.1220 -0.5160
usemtl None
s off
f 41/71/31 43/72/31 44/73/31 42/74/31
f 43/72/32 47/75/32 48/76/32 44/73/32
f 47/75/33 45/77/33 46/78/33 48/76/33
f 45/77/34 41/79/34 42/80/34 46/78/34
f 43/81/35 41/82/35 45/77/35 47/75/35
f 48/76/36 46/78/36 42/83/36 44/84/36
